HIERARCHY
ROOT hip
{
	OFFSET 0.000000 0.000000 0.000000 
	CHANNELS 6 Xposition Yposition Zposition Xrotation Zrotation Yrotation
	JOINT abdomen
	{
		OFFSET 0.000000 3.402643 0.000000 
		CHANNELS 3 Xrotation Zrotation Yrotation
		JOINT chest
		{
			OFFSET 0.000000 8.438565 -0.680529 
			CHANNELS 3 Xrotation Zrotation Yrotation
			JOINT neck
			{
				OFFSET 0.000000 10.207942 -0.272212 
				CHANNELS 3 Xrotation Zrotation Yrotation
				JOINT head
				{
					OFFSET 0.000000 3.130431 0.000000 
					CHANNELS 3 Xrotation Zrotation Yrotation
					End Site
					{
						OFFSET 0.000000 3.130435 0.000000 
					}
				}
			}
			JOINT lCollar
			{
				OFFSET 3.470700 6.669187 -0.816635 
				CHANNELS 3 Yrotation Zrotation Xrotation
				JOINT lShldr
				{
					OFFSET 3.198488 0.000000 0.000000 
					CHANNELS 3 Zrotation Yrotation Xrotation
					JOINT lForeArm
					{
						OFFSET 10.139888 0.000000 0.000000 
						CHANNELS 3 Yrotation Zrotation Xrotation
						JOINT lHand
						{
							OFFSET 8.370511 0.000000 0.000000 
							CHANNELS 3 Zrotation Yrotation Xrotation
							End Site
							{
								OFFSET 4.083176 0.000000 0.000000 
							}
						}
					}
				}
			}
			JOINT rCollar
			{
				OFFSET -3.470700 6.669187 -0.816635 
				CHANNELS 3 Yrotation Zrotation Xrotation
				JOINT rShldr
				{
					OFFSET -3.198488 0.000000 0.000000 
					CHANNELS 3 Zrotation Yrotation Xrotation
					JOINT rForeArm
					{
						OFFSET -10.139888 0.000000 0.000000 
						CHANNELS 3 Yrotation Zrotation Xrotation
						JOINT rHand
						{
							OFFSET -8.370511 0.000000 0.000000 
							CHANNELS 3 Zrotation Yrotation Xrotation
							End Site
							{
								OFFSET -4.083176 0.000000 0.000000 
							}
						}
					}
				}
			}
		}
	}
	JOINT lThigh
	{
		OFFSET 5.308129 -1.633274 1.361059 
		CHANNELS 3 Xrotation Zrotation Yrotation
		JOINT lShin
		{
			OFFSET -2.041588 -20.007561 0.000000 
			CHANNELS 3 Xrotation Zrotation Yrotation
			JOINT lFoot
			{
				OFFSET 0.000000 -19.190928 -1.224953 
				CHANNELS 3 Xrotation Yrotation Zrotation
				End Site
				{
					OFFSET 0.000000 -2.449906 4.627600 
				}
			}
		}
	}
	JOINT rThigh
	{
		OFFSET -5.308129 -1.633274 1.361059 
		CHANNELS 3 Xrotation Zrotation Yrotation
		JOINT rShin
		{
			OFFSET 2.041588 -20.007561 0.000000 
			CHANNELS 3 Xrotation Zrotation Yrotation
			JOINT rFoot
			{
				OFFSET 0.000000 -19.190928 -1.224953 
				CHANNELS 3 Xrotation Yrotation Zrotation
				End Site
				{
					OFFSET 0.000000 -2.449906 4.627600 
				}
			}
		}
	}
}
MOTION
Frames: 8
Frame Time: 0.033333
0.046648 48.812149 0.046648 -0.008738 -0.014127 -26.523438 24.175188 7.147958 -20.167604 -0.019531 0.000000 -0.019531 -8.544922 -0.001505 -0.009645 19.807169 16.865419 47.852581 2.000000 -2.000000 0.000000 -7.167813 -51.148621 -30.501831 -46.275909 -0.599773 8.546930 -37.537178 -54.121536 -161.565201 -2.000000 2.000000 0.000000 -30.599640 136.120636 -90.393417 54.419010 0.554422 8.622923 13.211381 -54.068428 -39.764896 -27.562605 22.043089 15.241084 23.248598 -1.456054 -2.051687 8.015349 -6.686379 -10.473127 7.702938 -17.116440 -13.601160 22.967258 1.441967 1.995397 -22.229979 -16.175598 16.776833 
0.046648 48.799969 0.046648 -0.008738 -0.014127 -26.523438 24.175188 7.147958 -20.167604 -0.019531 0.000000 -0.019531 -8.544922 -0.001505 -0.009645 19.807169 16.865419 47.852581 2.000000 -2.000000 0.000000 -7.167813 -51.148621 -30.501831 -46.275909 -0.599773 8.546930 -37.537178 -54.121536 -161.565201 -2.000000 2.000000 0.000000 -30.599640 136.120636 -90.393417 54.419010 0.554422 8.622923 13.211381 -54.068428 -39.764896 -27.562605 22.043089 15.241084 23.248598 -1.456056 -2.051687 8.015344 -6.686378 -10.473127 7.702938 -17.116440 -13.601160 22.967258 1.441967 1.995397 -22.229977 -16.175598 16.776833 
0.046648 48.787788 0.046648 -0.008738 -0.014127 -26.523438 24.175188 7.147958 -20.167604 -0.019531 0.000000 -0.019531 -8.544922 -0.001505 -0.009645 19.807169 16.865419 47.852581 2.000000 -2.000000 0.000000 -7.167813 -51.148621 -30.501831 -46.275909 -0.599773 8.546930 -37.537178 -54.121536 -161.565201 -2.000000 2.000000 0.000000 -30.599640 136.120636 -90.393417 54.419010 0.554422 8.622923 13.211381 -54.068428 -39.764896 -27.562605 22.043089 15.241084 23.248598 -1.456053 -2.051687 8.015350 -6.686379 -10.473127 7.702938 -17.116440 -13.601160 22.967258 1.441967 1.995397 -22.229979 -16.175598 16.776833 
0.046648 48.775604 0.046648 -0.008738 -0.014127 -26.523438 24.175188 7.147958 -20.167604 -0.019531 0.000000 -0.019531 -8.544922 -0.001505 -0.009645 19.807169 16.865419 47.852581 2.000000 -2.000000 0.000000 -7.167813 -51.148621 -30.501831 -46.275909 -0.599773 8.546930 -37.537178 -54.121536 -161.565201 -2.000000 2.000000 0.000000 -30.599640 136.120636 -90.393417 54.419010 0.554422 8.622923 13.211381 -54.068428 -39.764896 -27.562605 22.043089 15.241084 23.248598 -1.456056 -2.051687 8.015350 -6.686378 -10.473127 7.702938 -17.116440 -13.601160 22.967258 1.441968 1.995398 -22.229979 -16.175598 16.776833 
0.046648 48.763424 0.046648 -0.008738 -0.014127 -26.523438 24.175188 7.147958 -20.167604 -0.019531 0.000000 -0.019531 -8.544922 -0.001505 -0.009645 19.807169 16.865419 47.852581 2.000000 -2.000000 0.000000 -7.167813 -51.148621 -30.501831 -46.275909 -0.599773 8.546930 -37.537178 -54.121536 -161.565201 -2.000000 2.000000 0.000000 -30.599640 136.120636 -90.393417 54.419010 0.554422 8.622923 13.211381 -54.068428 -39.764896 -27.562605 22.043089 15.241084 23.248598 -1.456054 -2.051687 8.015350 -6.686378 -10.473127 7.702938 -17.116440 -13.601160 22.967258 1.441967 1.995397 -22.229977 -16.175598 16.776833 
0.046648 48.751377 0.046648 -0.008738 -0.014127 -26.523438 24.175188 7.147958 -20.167604 -0.019531 0.000000 -0.019531 -8.544922 -0.001505 -0.009645 19.807169 16.865419 47.852581 2.000000 -2.000000 0.000000 -7.167813 -51.148621 -30.501831 -46.275909 -0.599773 8.546930 -37.537178 -54.121536 -161.565201 -2.000000 2.000000 0.000000 -30.599640 136.120636 -90.393417 54.419010 0.554422 8.622923 13.211381 -54.068428 -39.764896 -27.562605 22.043089 15.241084 23.248598 -1.456056 -2.051687 8.015350 -6.686378 -10.473127 7.702938 -17.116440 -13.601160 22.967258 1.441967 1.995397 -22.229977 -16.175598 16.776833 
0.046648 48.739193 0.046648 -0.008738 -0.014127 -26.523438 24.175188 7.147958 -20.167604 -0.019531 0.000000 -0.019531 -8.544922 -0.001505 -0.009645 19.807169 16.865419 47.852581 2.000000 -2.000000 0.000000 -6.901827 -51.210564 -30.780729 -46.191380 -0.600962 8.544707 -37.585133 -54.124355 -161.662964 -2.000000 2.000000 0.000000 -30.351158 136.079041 -90.246536 54.356960 0.556159 8.622201 13.342933 -54.177814 -39.849983 -28.063587 22.193586 15.067021 23.992565 -1.440424 -2.087610 7.752690 -6.685327 -10.496779 7.274401 -17.235905 -13.460242 23.712004 1.412318 2.028831 -22.555141 -16.184795 16.796965 
0.046648 48.568924 0.046648 -0.008738 -0.014127 -26.523438 24.175188 7.147958 -20.167604 -0.019531 0.000000 -0.019531 -8.544922 -0.001505 -0.009645 19.807169 16.865419 47.852581 2.000000 -2.000000 0.000000 -6.390391 -51.331825 -31.282963 -45.988731 -0.606086 8.541965 -37.691982 -54.127419 -161.827835 -2.000000 2.000000 0.000000 -29.863825 135.986526 -89.966270 54.252926 0.556513 8.614253 13.606508 -54.396461 -40.012459 -28.979259 22.444654 14.790565 25.411280 -1.387743 -2.190320 7.230571 -6.666414 -10.507480 6.474454 -17.461012 -13.298834 25.139811 1.372180 2.134041 -23.164526 -16.230972 16.830914 
